<svg xmlns="http://www.w3.org/2000/svg" viewBox="0 0 750 750"><defs><style>.cls-1{fill:#7171da;}.cls-2{fill:#f9be66;}.cls-3{fill:#212963;}.cls-4{fill:#269059;}.cls-5{fill:#2eb963;}.cls-6{fill:#38c670;}.cls-7{fill:#5793dd;}.cls-8{fill:#fff;}.cls-9{fill:#3d61af;}.cls-10{fill:#fb9300;}.cls-11{fill:none;}</style></defs><title>Extracash_icono_2</title><g id="Ilustraciones"><path class="cls-1" d="M740,375c0,201.59-163.42,365-365,365S10,576.59,10,375,173.42,10,375,10,740,173.42,740,375"/><path class="cls-2" d="M315.59,604.34a296.13,296.13,0,0,0-47,25.38c-14.71,9.59-28.31,20.07-41.05,30s-24.76,19.54-34.91,25.5c-1.88,1.11-3.68,2.07-5.33,2.84a362.92,362.92,0,0,0,89.14,38.44c2.4-2.85,4.75-5.64,7.1-8.38,10-11.81,19.42-22.81,29.38-32.77a230.63,230.63,0,0,1,31.52-26.84l.9-.63a30.82,30.82,0,0,0-29.76-53.58Z"/><path class="cls-3" d="M468.5,364.72,464,346.12a23.48,23.48,0,0,0-28.34-17.32L145.06,399l-15.28,25c10.37,10,18.52,18.05,18.52,18.05Z"/><path class="cls-3" d="M435.67,328.8l-289,69.79,3.88,23.23,290.6-70.19L464,346.12a23.48,23.48,0,0,0-28.34-17.32"/><path class="cls-4" d="M268.75,156.32,172.48,459.55c-2.66,8.38.7,18.46,9,21.09l140.92,44.74c8.29,2.63,16.36-3.81,19-12.19L437.69,210c2.66-8.38-.89-16.19-9.18-18.82L287.59,146.39c-8.29-2.63-16.18,1.55-18.84,9.93"/><path class="cls-5" d="M348.55,141.55l-147,282.16c-4.06,7.79-2.48,18.29,5.23,22.31l131.13,68.32c7.71,4,16.78-.94,20.84-8.74l147-282.15c4.06-7.8,1.9-16.11-5.81-20.12L368.81,135c-7.71-4-16.2-1.26-20.26,6.54"/><path class="cls-6" d="M434.1,155.8,240.81,408.5c-5.34,7-5.59,17.6,1.31,22.88l117.44,89.83c6.91,5.29,16.69,2,22-5l193.3-252.7c5.34-7,4.64-15.54-2.26-20.82L455.19,152.84c-6.91-5.29-15.75-4-21.09,3"/><path class="cls-7" d="M473.32,250.5A108.41,108.41,0,0,0,375,233.08l-76.12,99.5A108.5,108.5,0,0,0,439.66,440.27l76.11-99.5a108.4,108.4,0,0,0-42.45-90.27"/><path class="cls-2" d="M186.61,604.84A41.07,41.07,0,0,0,111,627a365.94,365.94,0,0,0,111.16,79.53,41.08,41.08,0,0,0,.63-45.23Z"/><circle class="cls-8" cx="411.33" cy="339.08" r="42.74"/><path class="cls-9" d="M148.3,442.05s-8.15-8-18.52-18.05l-6.37,10.42,48.26,199.8a58.71,58.71,0,0,0,70.86,43.29L504.6,614.22a23.48,23.48,0,0,0,17.31-28.34l-49.63-205.5Z"/><path class="cls-8" d="M514.6,521.2l-74.2,17.92A29.36,29.36,0,1,1,426.62,482l74.2-17.91A11.73,11.73,0,0,1,515,472.78L523.26,507a11.75,11.75,0,0,1-8.66,14.17"/><path class="cls-7" d="M450.25,506.52a14.68,14.68,0,1,1-17.72-10.82,14.69,14.69,0,0,1,17.72,10.82"/><path class="cls-3" d="M443.94,363.06l-290.6,70.18a5.87,5.87,0,0,1-2.76-11.42l-3.89-23.23c-14.93,3.61-25.94,17.64-23.84,32.86a29.37,29.37,0,0,0,36,24.63l313.43-75.7a23.48,23.48,0,0,0-28.34-17.32"/><path class="cls-2" d="M173.37,554.67a41.42,41.42,0,0,0-45.07,5.51c-6.62,5.6-11.6,9.84-17.14,14.93-5.36,4.94-10.7,10-15.75,15.35q-4.17,4.39-8.26,9a367,367,0,0,0,78.71,74.72,161.06,161.06,0,0,1,9.43-28.42c2.21-5.13,4.43-10.41,6.9-15.55l7.23-14.63,2.71-5.46A41.38,41.38,0,0,0,173.37,554.67Z"/><path class="cls-2" d="M313.62,549.59c-16.87-12.51-35.28-25.39-59.22-33.47-12-3.81-25.63-6.47-40.23-5.11A89.73,89.73,0,0,0,173,525.19a123.91,123.91,0,0,0-29.52,27.18,189.7,189.7,0,0,0-19.7,30.4A328.75,328.75,0,0,0,106.3,622a366.78,366.78,0,0,0,59.05,51.78,36.67,36.67,0,0,0,3.94-11c3.42-18.3,8-36,14.1-52s14.28-29.71,23.22-37.4a32.64,32.64,0,0,1,14.48-7.58c5.41-1.44,12.16-1.2,19.54.13,15,2.91,31.62,11,48.2,20.73l.28.17a22.36,22.36,0,0,0,24.51-37.32Z"/><path class="cls-2" d="M144.08,553h0a41.06,41.06,0,0,1,56.73,12.46L236.93,622a41.07,41.07,0,1,1-69.19,44.26l-36.12-56.45A41.06,41.06,0,0,1,144.08,553"/><path class="cls-10" d="M179.24,584.72a6.75,6.75,0,1,0-11.63,6.87L218,674a27,27,0,0,1-1.65,29.85q6.17,3,12.46,5.73a40.51,40.51,0,0,0,.83-42.45Z"/><path class="cls-10" d="M169.85,630.54a6.76,6.76,0,1,0-11.64,6.87l32.14,52.5q11.55,6.8,23.64,12.74Z"/><path class="cls-11" d="M10,375c0,186.66,140.11,340.59,320.91,362.37H419.1C599.89,715.59,740,561.66,740,375,740,173.42,576.58,10,375,10S10,173.42,10,375"/><polygon class="cls-8" points="162.56 329.14 142.22 358.62 121.88 329.14 142.22 299.67 162.56 329.14"/><polygon class="cls-8" points="588.76 564.36 568.42 593.84 548.09 564.36 568.42 534.89 588.76 564.36"/><polygon class="cls-8" points="544.9 128.19 524.56 157.66 504.22 128.19 524.56 98.71 544.9 128.19"/><path class="cls-8" d="M250.64,120l8-8a3.2,3.2,0,1,0-4.53-4.52l-8,8-8-8a3.2,3.2,0,0,0-4.53,4.52l8,8-8,8a3.19,3.19,0,0,0,0,4.52,3.2,3.2,0,0,0,4.53,0l8-8,8,8a3.2,3.2,0,0,0,4.53,0,3.19,3.19,0,0,0,0-4.52Z"/><path class="cls-8" d="M599.25,380.82l8-8a3.2,3.2,0,0,0-4.53-4.52l-8,8-8-8a3.2,3.2,0,0,0-4.53,4.52l8,8-8,8a3.2,3.2,0,1,0,4.53,4.52l8-8,8,8a3.2,3.2,0,0,0,4.53-4.52Z"/></g></svg>