<svg id="iconos" xmlns="http://www.w3.org/2000/svg" xmlns:xlink="http://www.w3.org/1999/xlink" viewBox="0 0 192 192"><defs><style>.cls-1{fill:none;}.cls-2{fill:#6aaae4;}.cls-3{clip-path:url(#clip-path);}.cls-4{fill:#334c80;}.cls-5{fill:#fff;}.cls-6{fill:#6685c7;}.cls-7{fill:#33c95a;}.cls-8{fill:#001f60;}.cls-9{fill:#00bb31;}.cls-10{fill:#335cb4;}.cls-11{fill:#131a3f;}</style><clipPath id="clip-path"><circle class="cls-1" cx="96" cy="96" r="96"/></clipPath></defs><title>PAGOS-CONSULTAS ILIM</title><circle class="cls-2" cx="96" cy="96" r="96"/><g class="cls-3"><rect class="cls-4" x="-8.05" y="141.36" width="222.81" height="57.44"/></g><path class="cls-5" d="M140.71,134.27H29V64.43a7,7,0,0,1,7-7h97.79a7,7,0,0,1,7,7Z"/><path class="cls-5" d="M29,134.27H133.76a0,0,0,0,1,0,0v1.41a5.57,5.57,0,0,1-5.57,5.57H34.53A5.57,5.57,0,0,1,29,135.68v-1.41a0,0,0,0,1,0,0Z"/><path class="cls-6" d="M63.87,134.27H175.62a0,0,0,0,1,0,0v1.41a5.57,5.57,0,0,1-5.57,5.57H69.44a5.57,5.57,0,0,1-5.57-5.57v-1.41a0,0,0,0,1,0,0Z"/><rect class="cls-7" x="42.96" y="64.43" width="90.78" height="62.87"/><path class="cls-8" d="M133.74,57.45H42.93a7,7,0,0,0-7,7v69.85H140.72V64.43A7,7,0,0,0,133.74,57.45Zm-86.59,7h82.4a4.2,4.2,0,0,1,4.19,4.19V127.3H43V68.62A4.19,4.19,0,0,1,47.15,64.43Z"/><rect class="cls-5" x="51.88" y="72.04" width="42.76" height="38.19" rx="2.87"/><path class="cls-9" d="M92.59,110.23H53.94a2.06,2.06,0,0,1-2.06-2v-4.39H94.65v4.39A2.06,2.06,0,0,1,92.59,110.23Z"/><rect class="cls-10" x="60.38" y="94.44" width="25.77" height="5.71" rx="1.21"/><path class="cls-2" d="M64.69,82.75H55.78a.61.61,0,0,1-.6-.61.59.59,0,0,1,.6-.61l8.91,0a.61.61,0,1,1,0,1.21Z"/><path class="cls-2" d="M90.83,77.53h0l-35,0a.61.61,0,0,1,0-1.21h0l35,0a.61.61,0,0,1,0,1.21Z"/><path class="cls-2" d="M81.12,88h0L55.78,88a.6.6,0,0,1-.6-.6.58.58,0,0,1,.61-.61l25.33.05a.61.61,0,0,1,0,1.21Z"/><path class="cls-2" d="M81.12,82.77h0l-13.1,0a.61.61,0,0,1-.61-.61.61.61,0,0,1,.61-.61h0l13.1,0a.62.62,0,0,1,.6.61A.6.6,0,0,1,81.12,82.77Z"/><rect class="cls-11" x="38.08" y="120.32" width="97.76" height="13.97"/></svg>