<?xml version="1.0" encoding="UTF-8"?>
<svg width="36px" height="36px" viewBox="0 0 36 36" version="1.1" xmlns="http://www.w3.org/2000/svg" xmlns:xlink="http://www.w3.org/1999/xlink">
    <!-- Generator: sketchtool 61.2 (101010) - https://sketch.com -->
    <title>CD83BA5C-3001-4C35-9F37-7BCC7AC9169C@1.5x</title>
    <desc>Created with sketchtool.</desc>
    <defs>
        <filter x="-2.9%" y="-3.5%" width="105.9%" height="107.0%" filterUnits="objectBoundingBox" id="filter-1">
            <feOffset dx="1" dy="2" in="SourceAlpha" result="shadowOffsetOuter1"></feOffset>
            <feGaussianBlur stdDeviation="3" in="shadowOffsetOuter1" result="shadowBlurOuter1"></feGaussianBlur>
            <feColorMatrix values="0 0 0 0 0   0 0 0 0 0   0 0 0 0 0  0 0 0 0.1 0" type="matrix" in="shadowBlurOuter1" result="shadowMatrixOuter1"></feColorMatrix>
            <feMerge>
                <feMergeNode in="shadowMatrixOuter1"></feMergeNode>
                <feMergeNode in="SourceGraphic"></feMergeNode>
            </feMerge>
        </filter>
    </defs>
    <g id="BPIX_Mi-Perfil" stroke="none" stroke-width="1" fill="none" fill-rule="evenodd">
        <g id="BPIX/Desktop/Perfil/A1" transform="translate(-726.000000, -204.000000)">
            <g id="card-Email" filter="url(#filter-1)" transform="translate(699.000000, 188.000000)">
                <g id="icon-email" transform="translate(32.000000, 20.000000)">
                    <rect id="Rectangle" fill="#FFFFFF" x="0" y="0" width="24" height="24"></rect>
                    <path d="M23,20.1185013 C23,20.6355013 22.58,21.0555013 22.063,21.0555013 L1.938,21.0555013 C1.42,21.0555013 1,20.6355013 1,20.1185013 L1,10.3095013 L11.705,16.8715013 C11.865,16.9695013 12.066,16.9695013 12.227,16.8715013 L23,10.3075013 L23,20.1185013 Z M3.833,10.8735013 L1.444,9.40850126 L3.833,7.88950126 L3.833,10.8735013 Z M12.618,10.5695013 L12.618,11.3655013 C12.575,11.8345013 12.206,12.1185013 11.737,12.1185013 C11.183,12.1185013 10.813,11.7065013 10.813,11.0815013 C10.813,10.4415013 11.183,10.0295013 11.751,10.0295013 C12.135,10.0295013 12.448,10.2575013 12.618,10.5695013 L12.618,10.5695013 Z M5.93,4.96650126 L18.708,4.96650126 C19.313,4.96650126 19.805,5.45850126 19.805,6.06250126 L19.805,11.0835013 L15.062,13.9725013 C15.016,13.9525013 14.973,13.9235013 14.92,13.9235013 C14.75,13.9235013 14.608,13.9945013 14.451,14.1225013 C13.883,14.5915013 13.03,14.9315013 12.021,14.9315013 C9.676,14.9315013 8.056,13.2695013 8.056,10.9815013 C8.056,8.68050126 9.662,7.01650126 11.964,7.01650126 C14.48,7.01650126 15.759,8.52350126 15.759,10.4285013 C15.759,11.6785013 15.318,12.2895013 14.707,12.2895013 C14.195,12.2895013 13.968,12.0055013 13.968,11.2945013 L13.968,9.13450126 C13.968,9.09250126 13.755,8.96450126 13.471,8.96450126 C13.144,8.96450126 12.789,9.10550126 12.661,9.60350126 C12.376,9.20550126 11.921,8.92150126 11.367,8.92150126 C10.273,8.92150126 9.477,9.78850126 9.477,11.0815013 C9.477,12.2895013 10.202,13.2265013 11.367,13.2265013 C11.993,13.2265013 12.504,12.8865013 12.746,12.3465013 C12.959,12.8715013 13.528,13.2135013 14.309,13.2135013 C15.816,13.2135013 16.64,12.2185013 16.64,10.4135013 C16.64,7.98350126 14.934,6.19250126 11.964,6.19250126 C9.15,6.19250126 7.189,8.18150126 7.189,10.9815013 C7.189,11.7755013 7.357,12.5265013 7.642,13.2075013 L4.833,11.4855013 L4.833,6.06250126 C4.833,5.45850126 5.325,4.96650126 5.93,4.96650126 L5.93,4.96650126 Z M11.084,3.28050126 C11.641,2.91050126 12.359,2.91050126 12.924,3.28650126 L13.994,3.96650126 L10.006,3.96650126 L11.084,3.28050126 Z M20.805,8.29750126 L22.554,9.40850126 L20.805,10.4735013 L20.805,8.29750126 Z M23.933,9.17150126 C23.919,9.14650126 23.894,9.13250126 23.876,9.11050126 C23.843,9.06950126 23.814,9.02450126 23.768,8.99550126 L20.805,7.11250126 L20.805,6.06250126 C20.805,4.90650126 19.864,3.96650126 18.708,3.96650126 L15.857,3.96650126 L13.47,2.44850126 C12.576,1.85050126 11.422,1.85250126 10.539,2.44250126 L8.143,3.96650126 L5.93,3.96650126 C4.774,3.96650126 3.833,4.90650126 3.833,6.06250126 L3.833,6.70550126 L0.232,8.99450126 C0.182,9.02550126 0.149,9.07450126 0.114,9.11950126 C0.1,9.13850126 0.079,9.14950126 0.067,9.17050126 C0.025,9.24450126 0,9.32850126 0,9.41650126 L0,9.41750126 L0,20.1185013 C0,21.1865013 0.869,22.0555013 1.938,22.0555013 L22.063,22.0555013 C23.131,22.0555013 24,21.1865013 24,20.1185013 L24,9.41750126 C24,9.32950126 23.976,9.24550126 23.933,9.17150126 L23.933,9.17150126 Z" fill="#00BB31"></path>
                </g>
            </g>
        </g>
    </g>
</svg>