<?xml version="1.0" encoding="UTF-8"?>
<svg width="36px" height="36px" viewBox="0 0 36 36" version="1.1" xmlns="http://www.w3.org/2000/svg" xmlns:xlink="http://www.w3.org/1999/xlink">
    <!-- Generator: sketchtool 61.2 (101010) - https://sketch.com -->
    <title>CE3EB773-B042-4F8F-AF6E-10E495200416@1.5x</title>
    <desc>Created with sketchtool.</desc>
    <defs>
        <filter x="-2.9%" y="-3.5%" width="105.9%" height="107.0%" filterUnits="objectBoundingBox" id="filter-1">
            <feOffset dx="1" dy="2" in="SourceAlpha" result="shadowOffsetOuter1"></feOffset>
            <feGaussianBlur stdDeviation="3" in="shadowOffsetOuter1" result="shadowBlurOuter1"></feGaussianBlur>
            <feColorMatrix values="0 0 0 0 0   0 0 0 0 0   0 0 0 0 0  0 0 0 0.1 0" type="matrix" in="shadowBlurOuter1" result="shadowMatrixOuter1"></feColorMatrix>
            <feMerge>
                <feMergeNode in="shadowMatrixOuter1"></feMergeNode>
                <feMergeNode in="SourceGraphic"></feMergeNode>
            </feMerge>
        </filter>
    </defs>
    <g id="BPIX_Mi-Perfil" stroke="none" stroke-width="1" fill="none" fill-rule="evenodd">
        <g id="BPIX/Desktop/Perfil/A1" transform="translate(-150.000000, -204.000000)" fill="#00BB31">
            <g id="card-mis-datos" filter="url(#filter-1)" transform="translate(123.000000, 188.000000)">
                <g id="icon-préstamo" transform="translate(32.000000, 20.000000)">
                    <path d="M11.903252,1.5 C9.76129615,1.5 7.37634531,3.288 7.37634531,4.5 C7.37634531,5.142 7.34934587,5.5095 7.32234642,5.8575 C7.27584738,6.4575 7.23684818,6.9735 7.37484534,8.9475 C7.47984318,10.4235 8.04533152,11.184 8.64381918,11.9895 C9.1913079,12.726 9.8122951,13.56 10.0072911,14.892 C10.3402842,17.169 7.87583501,17.8875 5.89587583,18.4635 C4.9898945,18.7275 4.05091386,19.0005 3.54242434,19.3605 C2.79843967,19.8915 2.0694547,21.024 1.49496654,22.551 L22.380536,22.5 C21.9305453,21.024 21.2015603,19.8915 20.4575757,19.3605 C19.9490861,19.0005 19.0101055,18.7275 18.1041242,18.4635 C16.122665,17.8875 13.6597158,17.169 13.9927089,14.892 C14.1862049,13.56 14.8086921,12.726 15.3561808,11.9895 C15.9546685,11.184 16.5201568,10.4235 16.6236547,8.9475 C16.7571519,7.065 16.6896533,6.528 16.6206548,5.9595 C16.5726557,5.5815 16.5261567,5.199 16.5261567,4.5 C16.5261567,3.246 14.1967047,1.5 11.903252,1.5 M22.380536,24 L1.61946398,24 C1.06147548,24 0.551485991,23.742 0.252992144,23.3115 C-0.0140023524,22.9245 -0.0725011465,22.455 0.0909954833,22.0215 C0.570985589,20.745 1.41096827,19.0365 2.67394224,18.1395 C3.38792752,17.631 4.40340659,17.337 5.47738445,17.0235 C7.40484472,16.4625 8.6573189,16.026 8.52232169,15.108 C8.38282456,14.1525 7.94483359,13.5645 7.43934401,12.885 C6.7703578,11.985 6.01287341,10.968 5.8778762,9.0525 C5.7323792,6.969 5.77737827,6.3735 5.82687725,5.7435 C5.85087675,5.424 5.87637623,5.088 5.87637623,4.5 C5.87637623,2.1825 9.27230623,0 11.903252,0 C14.9346895,0 18.0261258,2.271 18.0261258,4.5 C18.0261258,5.1105 18.0666249,5.4435 18.1086241,5.775 C18.1836225,6.39 18.2631209,7.0245 18.1221238,9.0525 C17.9871266,10.968 17.2296422,11.985 16.559156,12.885 C16.0551664,13.5645 15.6171754,14.1525 15.4776783,15.108 C15.3426811,16.026 16.5951553,16.4625 18.5226155,17.0235 C19.5965934,17.337 20.6120725,17.631 21.3245578,18.1395 L21.3260578,18.1395 C22.5890317,19.0365 23.4290144,20.745 23.9090045,22.0215 C24.0725011,22.455 24.0140024,22.9245 23.7470079,23.3115 C23.448514,23.742 22.9370246,24 22.380536,24" id="icon-datos"></path>
                </g>
            </g>
        </g>
    </g>
</svg>